<svg width="55" height="55" viewBox="0 0 55 55" fill="none" xmlns="http://www.w3.org/2000/svg">
<path d="M21.0227 38V14.7273H30.2045C31.9697 14.7273 33.4735 15.0644 34.7159 15.7386C35.9583 16.4053 36.9053 17.3333 37.5568 18.5227C38.2159 19.7045 38.5455 21.0682 38.5455 22.6136C38.5455 24.1591 38.2121 25.5227 37.5455 26.7045C36.8788 27.8864 35.9129 28.8068 34.6477 29.4659C33.3902 30.125 31.8674 30.4545 30.0795 30.4545H24.2273V26.5114H29.2841C30.2311 26.5114 31.0114 26.3485 31.625 26.0227C32.2462 25.6894 32.7083 25.2311 33.0114 24.6477C33.322 24.0568 33.4773 23.3788 33.4773 22.6136C33.4773 21.8409 33.322 21.1667 33.0114 20.5909C32.7083 20.0076 32.2462 19.5568 31.625 19.2386C31.0038 18.9129 30.2159 18.75 29.2614 18.75H25.9432V38H21.0227Z" fill="white"/>
<path d="M45 30.5C45 32.7981 44.5473 35.0738 43.6679 37.197C42.7884 39.3202 41.4994 41.2493 39.8744 42.8744C38.2493 44.4994 36.3202 45.7884 34.197 46.6679C32.0738 47.5473 29.7981 48 27.5 48C25.2019 48 22.9262 47.5473 20.803 46.6679C18.6798 45.7884 16.7507 44.4994 15.1256 42.8744C13.5006 41.2493 12.2116 39.3202 11.3321 37.197C10.4527 35.0738 10 32.7981 10 30.5L14.5269 30.5C14.5269 32.2037 14.8624 33.8906 15.5144 35.4646C16.1664 37.0386 17.1219 38.4687 18.3266 39.6734C19.5313 40.878 20.9614 41.8336 22.5354 42.4856C24.1094 43.1376 25.7963 43.4731 27.5 43.4731C29.2037 43.4731 30.8906 43.1376 32.4646 42.4856C34.0386 41.8336 35.4687 40.8781 36.6734 39.6734C37.8781 38.4687 38.8336 37.0386 39.4856 35.4646C40.1376 33.8906 40.4731 32.2037 40.4731 30.5H45Z" fill="white"/>
</svg>
